 http://www.imdb.com/title/tt1611224

Source: Abraham.Lincoln.Vampire.Hunter.2012.720p.BluRay.DTS.x264-PublicHD Thanks!

Subs: Arabic, Brazilian, Danish, Dutch, English, Farsi-Persian, Finnish, French, Indonesian, Malay, Norwegian, Portuguese, Spanish, Swedish and Vietnamese.

Sample and Screens included.

General
Complete name                            : Abraham Lincoln Vampire Hunter-720p MP4 AAC x264 BRRip 2012-CC.mp4
Format                                   : MPEG-4
Format profile                           : Base Media
Codec ID                                 : isom
File size                                : 2.81 GiB
Duration                                 : 1h 45mn
Overall bit rate mode                    : Variable
Overall bit rate                         : 3 838 Kbps
Encoded date                             : UTC 2012-10-14 14:33:56

Video
ID                                       : 1
Format                                   : AVC
Format/Info                              : Advanced Video Codec
Format profile                           : High@L4.1
Format settings, CABAC                   : Yes
Format settings, ReFrames                : 5 frames
Codec ID                                 : avc1
Codec ID/Info                            : Advanced Video Coding
Duration                                 : 1h 45mn
Bit rate                                 : 3 552 Kbps
Maximum bit rate                         : 24.1 Mbps
Width                                    : 1 280 pixels
Height                                   : 528 pixels
Display aspect ratio                     : 2.40:1
Original display aspect ratio            : 2.40:1
Frame rate mode                          : Variable
Frame rate                               : 23.976 fps
Minimum frame rate                       : 13.653 fps
Maximum frame rate                       : 24.390 fps
Color space                              : YUV
Chroma subsampling                       : 4:2:0
Bit depth                                : 8 bits
Scan type                                : Progressive
Bits/(Pixel*Frame)                       : 0.219
Stream size                              : 2.53 GiB (90%)
Writing library                          : x264 core 112

Audio
ID                                       : 2
Format                                   : AAC
Format/Info                              : Advanced Audio Codec
Format profile                           : LC
Codec ID                                 : 40
Duration                                 : 1h 45mn
Bit rate mode                            : Variable
Bit rate                                 : 384 Kbps
Maximum bit rate                         : 659 Kbps
Channel(s)                               : 6 channels
Channel positions                        : Front: L C R, Side: L R, LFE
Sampling rate                            : 48.0 KHz
Compression mode                         : Lossy
Delay relative to video                  : 83ms
Stream size                              : 288 MiB (10%)
Language                                 : English

Enjoy...